<svg width="746" height="227" viewBox="0 0 746 227" version="1.1" xmlns="http://www.w3.org/2000/svg" xmlns:xlink="http://www.w3.org/1999/xlink">
<g id="Canvas" fill="none">
<g id="full logo">
<g id="Group 3">
<g id="Rectangle">
<rect width="239" height="221" rx="7" transform="translate(0 4)" fill="#00AEFF"/>
</g>
<g id="} {">
<path d="M 47.368 80.543C 37.054 80.543 34.762 75.004 34.762 69.847C 34.762 64.69 35.335 59.915 35.908 55.14C 36.481 50.174 37.054 45.208 37.054 39.86C 37.054 21.524 25.976 12.165 7.831 12.165L 4.393 12.165L 4.393 27.445L 7.258 27.445C 14.516 28.209 17.572 33.366 17.572 40.624C 17.572 45.017 17.19 49.219 16.808 53.039C 16.426 57.05 16.044 60.679 16.044 64.499C 16.044 76.723 21.01 84.554 30.56 87.61L 30.56 87.992C 21.01 91.048 16.044 98.688 16.044 111.676C 16.044 115.496 16.426 119.507 16.808 123.709C 17.19 127.529 17.572 131.54 17.572 135.551C 17.572 142.618 15.662 148.157 6.876 148.921L 4.393 148.921L 4.393 164.392L 8.404 164.392C 24.066 164.392 37.054 157.325 37.054 136.888C 37.054 131.54 36.481 126.574 35.908 121.417C 35.335 116.451 34.762 111.294 34.762 106.328C 34.762 101.744 37.054 95.632 47.368 95.632L 47.368 80.543ZM 81.5555 95.632C 91.8695 95.632 94.1615 101.744 94.1615 106.328C 94.1615 111.294 93.5885 116.451 93.0155 121.417C 92.4425 126.574 91.8695 131.54 91.8695 136.888C 91.8695 157.325 104.858 164.392 120.52 164.392L 124.531 164.392L 124.531 148.921L 122.048 148.921C 113.262 148.921 111.352 142.618 111.352 135.551C 111.352 131.54 111.734 127.529 112.116 123.709C 112.498 119.507 112.88 115.496 112.88 111.676C 112.88 98.688 107.914 91.048 98.3635 87.992L 98.3635 87.61C 107.914 84.554 112.88 76.723 112.88 64.499C 112.88 60.679 112.498 57.05 112.116 53.039C 111.734 49.219 111.352 45.017 111.352 40.624C 111.352 33.366 114.408 27.445 121.666 27.445L 124.531 27.445L 124.531 12.165L 120.902 12.165C 102.948 12.165 91.8695 21.524 91.8695 39.86C 91.8695 45.208 92.4425 50.174 93.0155 55.14C 93.5885 59.915 94.1615 64.69 94.1615 69.847C 94.1615 75.004 91.8695 80.543 81.5555 80.543L 81.5555 95.632Z" transform="translate(49 26)" fill="white"/>
</g>
</g>
<g id="HNG">
<path d="M 18.785 23.3C 14.365 23.3 12.155 25.51 12.155 29.93L 12.155 171.37C 12.155 175.79 14.365 178 18.785 178L 57.46 178C 61.88 178 64.09 175.79 64.09 171.37L 64.09 126.507C 64.09 123.192 65.195 122.529 68.068 122.529L 100.334 122.529C 103.649 122.529 104.312 123.192 104.312 126.507L 104.312 171.37C 104.312 175.79 106.522 178 110.942 178L 149.617 178C 154.037 178 156.247 175.79 156.247 171.37L 156.247 29.93C 156.247 25.51 154.037 23.3 149.617 23.3L 110.942 23.3C 106.522 23.3 104.312 25.51 104.312 29.93L 104.312 72.583C 104.312 75.456 103.649 76.561 100.334 76.561L 68.068 76.561C 65.195 76.561 64.09 75.456 64.09 72.583L 64.09 29.93C 64.09 25.51 61.88 23.3 57.46 23.3L 18.785 23.3ZM 187.125 23.3C 182.705 23.3 180.495 25.51 180.495 29.93L 180.495 171.37C 180.495 175.79 182.705 178 187.125 178L 225.8 178C 230.22 178 232.43 175.79 232.43 171.37L 232.43 71.478C 232.43 68.163 233.535 67.5 236.408 67.5L 266.464 67.5C 269.779 67.5 270.442 68.163 270.442 71.478L 270.442 171.37C 270.442 175.79 272.652 178 277.072 178L 315.747 178C 320.167 178 322.377 175.79 322.377 171.37L 322.377 29.93C 322.377 25.51 320.167 23.3 315.747 23.3L 187.125 23.3ZM 450.546 96.451C 446.126 96.451 443.916 98.661 443.916 103.081L 443.916 128.496C 443.916 131.369 443.032 132.695 440.38 133.579C 436.844 134.684 432.203 135.347 426.678 135.347C 406.125 135.347 393.97 120.761 393.97 101.313C 393.97 81.644 406.567 67.058 429.551 67.058C 441.927 67.058 452.093 69.931 463.806 76.119C 466.237 77.224 467.784 77.666 468.668 77.666C 471.099 77.666 472.867 76.119 474.635 73.246L 489.884 48.494C 490.989 46.505 491.652 44.737 491.652 43.411C 491.652 41.201 490.105 39.212 487.232 37.223C 470.657 26.394 450.325 19.985 428.004 19.985C 376.732 19.322 340.488 53.798 341.151 102.418C 340.488 149.049 376.732 181.978 426.015 181.315C 449.22 181.315 470.436 176.232 489.663 166.287C 494.746 163.635 495.851 161.425 495.851 155.9L 495.851 103.081C 495.851 98.661 493.641 96.451 489.221 96.451L 450.546 96.451Z" transform="translate(249 -19)" fill="#00AEFF"/>
</g>
<g id="INTERNSHIP">
<path d="M 14.4385 66L 5.3935 66L 5.3935 17.559L 14.4385 17.559L 14.4385 66ZM 76.8406 17.559L 76.8406 66L 72.2176 66C 71.503 66 70.9 65.8883 70.4086 65.665C 69.9396 65.4193 69.4818 65.0173 69.0351 64.459L 43.7426 32.165C 43.8766 33.639 43.9436 35.0013 43.9436 36.252L 43.9436 66L 36.0041 66L 36.0041 17.559L 40.7276 17.559C 41.1073 17.559 41.4311 17.5813 41.6991 17.626C 41.9895 17.6483 42.2351 17.7153 42.4361 17.827C 42.6595 17.9163 42.8716 18.0615 43.0726 18.2625C 43.2736 18.4412 43.497 18.6868 43.7426 18.9995L 69.1356 51.4275C 69.0686 50.6458 69.0128 49.8753 68.9681 49.116C 68.9235 48.3567 68.9011 47.6532 68.9011 47.0055L 68.9011 17.559L 76.8406 17.559ZM 132.183 24.9625L 117.577 24.9625L 117.577 66L 108.566 66L 108.566 24.9625L 93.9597 24.9625L 93.9597 17.559L 132.183 17.559L 132.183 24.9625ZM 158.287 24.728L 158.287 38.1615L 175.238 38.1615L 175.238 45.096L 158.287 45.096L 158.287 58.7975L 179.794 58.7975L 179.794 66L 149.242 66L 149.242 17.559L 179.794 17.559L 179.794 24.728L 158.287 24.728ZM 213.14 40.607C 214.837 40.607 216.311 40.3948 217.562 39.9705C 218.835 39.5462 219.873 38.9655 220.677 38.2285C 221.503 37.4692 222.118 36.5758 222.52 35.5485C 222.922 34.5212 223.123 33.3933 223.123 32.165C 223.123 29.7083 222.307 27.8212 220.677 26.5035C 219.069 25.1858 216.601 24.527 213.274 24.527L 207.512 24.527L 207.512 40.607L 213.14 40.607ZM 236.322 66L 228.181 66C 226.64 66 225.523 65.397 224.831 64.191L 214.647 48.6805C 214.267 48.0998 213.843 47.6867 213.374 47.441C 212.927 47.1953 212.257 47.0725 211.364 47.0725L 207.512 47.0725L 207.512 66L 198.5 66L 198.5 17.559L 213.274 17.559C 216.557 17.559 219.371 17.9052 221.716 18.5975C 224.083 19.2675 226.015 20.2167 227.511 21.445C 229.03 22.6733 230.146 24.1473 230.861 25.867C 231.576 27.5643 231.933 29.4403 231.933 31.495C 231.933 33.1253 231.687 34.6663 231.196 36.118C 230.727 37.5697 230.035 38.8873 229.119 40.071C 228.226 41.2547 227.109 42.2932 225.769 43.1865C 224.451 44.0798 222.944 44.7833 221.247 45.297C 221.827 45.632 222.363 46.034 222.855 46.503C 223.346 46.9497 223.793 47.4857 224.195 48.111L 236.322 66ZM 293.109 17.559L 293.109 66L 288.486 66C 287.772 66 287.169 65.8883 286.677 65.665C 286.208 65.4193 285.75 65.0173 285.304 64.459L 260.011 32.165C 260.145 33.639 260.212 35.0013 260.212 36.252L 260.212 66L 252.273 66L 252.273 17.559L 256.996 17.559C 257.376 17.559 257.7 17.5813 257.968 17.626C 258.258 17.6483 258.504 17.7153 258.705 17.827C 258.928 17.9163 259.14 18.0615 259.341 18.2625C 259.542 18.4412 259.766 18.6868 260.011 18.9995L 285.404 51.4275C 285.337 50.6458 285.281 49.8753 285.237 49.116C 285.192 48.3567 285.17 47.6532 285.17 47.0055L 285.17 17.559L 293.109 17.559ZM 340.412 26.3695C 340.144 26.8385 339.853 27.1847 339.541 27.408C 339.25 27.609 338.882 27.7095 338.435 27.7095C 337.966 27.7095 337.453 27.542 336.894 27.207C 336.358 26.8497 335.711 26.4588 334.951 26.0345C 334.192 25.6102 333.299 25.2305 332.271 24.8955C 331.266 24.5382 330.071 24.3595 328.687 24.3595C 327.436 24.3595 326.342 24.5158 325.404 24.8285C 324.466 25.1188 323.673 25.532 323.025 26.068C 322.4 26.604 321.931 27.2517 321.618 28.011C 321.306 28.748 321.149 29.5632 321.149 30.4565C 321.149 31.5955 321.462 32.5447 322.087 33.304C 322.735 34.0633 323.584 34.711 324.633 35.247C 325.683 35.783 326.878 36.2632 328.218 36.6875C 329.558 37.1118 330.931 37.5697 332.338 38.061C 333.745 38.53 335.119 39.0883 336.459 39.736C 337.799 40.3613 338.994 41.1653 340.043 42.148C 341.093 43.1083 341.93 44.292 342.556 45.699C 343.203 47.106 343.527 48.8145 343.527 50.8245C 343.527 53.0132 343.148 55.0678 342.388 56.9885C 341.651 58.8868 340.557 60.5507 339.105 61.98C 337.676 63.387 335.923 64.5037 333.846 65.33C 331.769 66.134 329.39 66.536 326.71 66.536C 325.169 66.536 323.651 66.3797 322.154 66.067C 320.658 65.7767 319.217 65.3523 317.833 64.794C 316.47 64.2357 315.186 63.5657 313.98 62.784C 312.774 62.0023 311.702 61.1313 310.764 60.171L 313.411 55.8495C 313.634 55.5368 313.924 55.28 314.282 55.079C 314.639 54.8557 315.019 54.744 315.421 54.744C 315.979 54.744 316.582 54.9785 317.23 55.4475C 317.877 55.8942 318.648 56.3967 319.541 56.955C 320.435 57.5133 321.473 58.027 322.657 58.496C 323.863 58.9427 325.303 59.166 326.978 59.166C 329.547 59.166 331.534 58.563 332.941 57.357C 334.348 56.1287 335.052 54.3755 335.052 52.0975C 335.052 50.8245 334.728 49.786 334.08 48.982C 333.455 48.178 332.617 47.508 331.568 46.972C 330.518 46.4137 329.323 45.9447 327.983 45.565C 326.643 45.1853 325.281 44.7722 323.896 44.3255C 322.512 43.8788 321.149 43.3428 319.809 42.7175C 318.469 42.0922 317.274 41.277 316.225 40.272C 315.175 39.267 314.326 38.0163 313.679 36.52C 313.053 35.0013 312.741 33.1365 312.741 30.9255C 312.741 29.1612 313.087 27.4415 313.779 25.7665C 314.494 24.0915 315.521 22.6063 316.861 21.311C 318.201 20.0157 319.854 18.9772 321.819 18.1955C 323.785 17.4138 326.04 17.023 328.586 17.023C 331.445 17.023 334.08 17.4697 336.492 18.363C 338.904 19.2563 340.959 20.507 342.656 22.115L 340.412 26.3695ZM 402.945 17.559L 402.945 66L 393.9 66L 393.9 44.828L 371.153 44.828L 371.153 66L 362.108 66L 362.108 17.559L 371.153 17.559L 371.153 38.396L 393.9 38.396L 393.9 17.559L 402.945 17.559ZM 433.497 66L 424.452 66L 424.452 17.559L 433.497 17.559L 433.497 66ZM 470.808 41.9135C 472.461 41.9135 473.901 41.7125 475.129 41.3105C 476.358 40.8862 477.374 40.2943 478.178 39.535C 479.004 38.7533 479.618 37.8153 480.02 36.721C 480.422 35.6043 480.623 34.3648 480.623 33.0025C 480.623 31.7072 480.422 30.5347 480.02 29.485C 479.618 28.4353 479.015 27.542 478.211 26.805C 477.407 26.068 476.391 25.5097 475.163 25.13C 473.935 24.728 472.483 24.527 470.808 24.527L 464.074 24.527L 464.074 41.9135L 470.808 41.9135ZM 470.808 17.559C 474.046 17.559 476.849 17.9387 479.216 18.698C 481.584 19.4573 483.538 20.5182 485.079 21.8805C 486.62 23.2428 487.759 24.8732 488.496 26.7715C 489.255 28.6698 489.635 30.7468 489.635 33.0025C 489.635 35.3475 489.244 37.5027 488.462 39.468C 487.681 41.411 486.508 43.086 484.945 44.493C 483.382 45.9 481.416 46.9943 479.049 47.776C 476.704 48.5577 473.957 48.9485 470.808 48.9485L 464.074 48.9485L 464.074 66L 455.063 66L 455.063 17.559L 470.808 17.559Z" transform="translate(256 160)" fill="#4F4F4F"/>
</g>
</g>
</g>
</svg>

